# xmcd
#
# Track frame offsets:
#	150
#	25152
#	41923
#	64766
#	87853
#	105823
#	122918
#	143692
#	162345
#	181130
#	199095
#
# Disc length: 2877 seconds
#
# Revision: 1
# Processed by: cddbd v1.5.1PL0 Copyright (c) Steve Scherf et al.
# Submitted via: dBpowerAMP V4.0
#
DISCID=8c0b3b0b
DTITLE=Chambao - En Privado
DYEAR=2004
DGENRE=Chill Out
TTITLE0=Ahi estas tu
TTITLE1=Lo veras
TTITLE2=Mejor me quedo aqui
TTITLE3=Dibujo en el aire
TTITLE4=Instinto humano
TTITLE5=No te pierdas
TTITLE6=Playas de Barbate
TTITLE7=Los muchados de mi barrio
TTITLE8=Una de tantas
TTITLE9=Verde mar
TTITLE10=Olvidarme de ti
EXTD=
EXTT0=
EXTT1=
EXTT2=
EXTT3=
EXTT4=
EXTT5=
EXTT6=
EXTT7=
EXTT8=
EXTT9=
EXTT10=
PLAYORDER=
